<mxfile host="app.diagrams.net" modified="2021-06-28T20:03:23.398Z" agent="5.0 (Macintosh; Intel Mac OS X 10_15_7) AppleWebKit/537.36 (KHTML, like Gecko) Chrome/91.0.4472.114 Safari/537.36" etag="4RY39PE22QFY01DiZ_dh" version="14.8.1" type="github">
  <diagram id="GJFqsf_EyuqzehTiZJeK" name="Basic Application Flowchart">
    <mxGraphModel dx="678" dy="436" grid="1" gridSize="10" guides="1" tooltips="1" connect="1" arrows="1" fold="1" page="1" pageScale="1" pageWidth="850" pageHeight="1100" math="0" shadow="0">
      <root>
        <mxCell id="0" />
        <mxCell id="1" parent="0" />
        <mxCell id="7-yrH4Gy5jRmvyiKCKQK-24" style="edgeStyle=orthogonalEdgeStyle;rounded=0;orthogonalLoop=1;jettySize=auto;html=1;exitX=1;exitY=0.5;exitDx=0;exitDy=0;entryX=0;entryY=0.5;entryDx=0;entryDy=0;fontColor=#000000;" edge="1" parent="1" source="7-yrH4Gy5jRmvyiKCKQK-1" target="7-yrH4Gy5jRmvyiKCKQK-2">
          <mxGeometry relative="1" as="geometry" />
        </mxCell>
        <mxCell id="7-yrH4Gy5jRmvyiKCKQK-1" value="&lt;font style=&quot;font-size: 8px&quot;&gt;Welcome Screen&lt;/font&gt;" style="rounded=1;whiteSpace=wrap;html=1;verticalAlign=top;horizontal=1;" vertex="1" parent="1">
          <mxGeometry x="60" y="130" width="80" height="20" as="geometry" />
        </mxCell>
        <mxCell id="7-yrH4Gy5jRmvyiKCKQK-53" style="edgeStyle=orthogonalEdgeStyle;rounded=0;orthogonalLoop=1;jettySize=auto;html=1;exitX=1;exitY=0.5;exitDx=0;exitDy=0;entryX=0;entryY=0.5;entryDx=0;entryDy=0;fontColor=#000000;" edge="1" parent="1" source="7-yrH4Gy5jRmvyiKCKQK-2" target="7-yrH4Gy5jRmvyiKCKQK-9">
          <mxGeometry relative="1" as="geometry" />
        </mxCell>
        <mxCell id="7-yrH4Gy5jRmvyiKCKQK-2" value="&lt;font style=&quot;font-size: 8px&quot;&gt;Top Menu&lt;br&gt;&lt;/font&gt;" style="rounded=1;whiteSpace=wrap;html=1;verticalAlign=top;horizontal=1;" vertex="1" parent="1">
          <mxGeometry x="180" y="130" width="80" height="20" as="geometry" />
        </mxCell>
        <mxCell id="7-yrH4Gy5jRmvyiKCKQK-29" style="edgeStyle=orthogonalEdgeStyle;rounded=0;orthogonalLoop=1;jettySize=auto;html=1;exitX=1;exitY=0.5;exitDx=0;exitDy=0;entryX=0;entryY=0.5;entryDx=0;entryDy=0;fontColor=#000000;" edge="1" parent="1" source="7-yrH4Gy5jRmvyiKCKQK-4" target="7-yrH4Gy5jRmvyiKCKQK-11">
          <mxGeometry relative="1" as="geometry" />
        </mxCell>
        <mxCell id="7-yrH4Gy5jRmvyiKCKQK-4" value="&lt;font style=&quot;font-size: 8px&quot;&gt;Link Input Menu&lt;br&gt;&lt;/font&gt;" style="rounded=1;whiteSpace=wrap;html=1;verticalAlign=top;horizontal=1;" vertex="1" parent="1">
          <mxGeometry x="300" y="170" width="80" height="20" as="geometry" />
        </mxCell>
        <mxCell id="7-yrH4Gy5jRmvyiKCKQK-7" value="&lt;font style=&quot;font-size: 8px&quot;&gt;About/Tutorial&lt;br&gt;&lt;/font&gt;" style="rounded=1;whiteSpace=wrap;html=1;verticalAlign=top;horizontal=1;" vertex="1" parent="1">
          <mxGeometry x="300" y="90" width="80" height="20" as="geometry" />
        </mxCell>
        <mxCell id="7-yrH4Gy5jRmvyiKCKQK-55" style="edgeStyle=orthogonalEdgeStyle;rounded=0;orthogonalLoop=1;jettySize=auto;html=1;exitX=0;exitY=0.5;exitDx=0;exitDy=0;entryX=1;entryY=0.5;entryDx=0;entryDy=0;fontColor=#000000;" edge="1" parent="1" source="7-yrH4Gy5jRmvyiKCKQK-9" target="7-yrH4Gy5jRmvyiKCKQK-2">
          <mxGeometry relative="1" as="geometry" />
        </mxCell>
        <mxCell id="7-yrH4Gy5jRmvyiKCKQK-9" value="&lt;font style=&quot;font-size: 8px&quot;&gt;About the Author&lt;br&gt;&lt;/font&gt;" style="rounded=1;whiteSpace=wrap;html=1;verticalAlign=top;horizontal=1;" vertex="1" parent="1">
          <mxGeometry x="300" y="130" width="80" height="20" as="geometry" />
        </mxCell>
        <mxCell id="7-yrH4Gy5jRmvyiKCKQK-38" style="edgeStyle=orthogonalEdgeStyle;rounded=0;orthogonalLoop=1;jettySize=auto;html=1;exitX=1;exitY=0.5;exitDx=0;exitDy=0;entryX=0;entryY=0.5;entryDx=0;entryDy=0;fontColor=#000000;" edge="1" parent="1" source="7-yrH4Gy5jRmvyiKCKQK-11" target="7-yrH4Gy5jRmvyiKCKQK-37">
          <mxGeometry relative="1" as="geometry" />
        </mxCell>
        <mxCell id="7-yrH4Gy5jRmvyiKCKQK-40" style="edgeStyle=orthogonalEdgeStyle;rounded=0;orthogonalLoop=1;jettySize=auto;html=1;exitX=0;exitY=0.5;exitDx=0;exitDy=0;entryX=1;entryY=0.5;entryDx=0;entryDy=0;fontColor=#000000;" edge="1" parent="1" source="7-yrH4Gy5jRmvyiKCKQK-11" target="7-yrH4Gy5jRmvyiKCKQK-4">
          <mxGeometry relative="1" as="geometry" />
        </mxCell>
        <mxCell id="7-yrH4Gy5jRmvyiKCKQK-11" value="&lt;font&gt;&lt;font style=&quot;font-size: 7px&quot;&gt;Scraped Listicle Menu&lt;/font&gt;&lt;br&gt;&lt;/font&gt;" style="rounded=1;whiteSpace=wrap;html=1;verticalAlign=top;horizontal=1;" vertex="1" parent="1">
          <mxGeometry x="420" y="170" width="80" height="20" as="geometry" />
        </mxCell>
        <mxCell id="7-yrH4Gy5jRmvyiKCKQK-26" value="" style="endArrow=classic;html=1;fontColor=#000000;entryX=0;entryY=1;entryDx=0;entryDy=0;" edge="1" parent="1" target="7-yrH4Gy5jRmvyiKCKQK-7">
          <mxGeometry width="50" height="50" relative="1" as="geometry">
            <mxPoint x="260" y="130" as="sourcePoint" />
            <mxPoint x="310" y="80" as="targetPoint" />
          </mxGeometry>
        </mxCell>
        <mxCell id="7-yrH4Gy5jRmvyiKCKQK-44" style="edgeStyle=orthogonalEdgeStyle;rounded=0;orthogonalLoop=1;jettySize=auto;html=1;exitX=0;exitY=0.5;exitDx=0;exitDy=0;entryX=1;entryY=0.5;entryDx=0;entryDy=0;fontColor=#000000;" edge="1" parent="1" source="7-yrH4Gy5jRmvyiKCKQK-37" target="7-yrH4Gy5jRmvyiKCKQK-11">
          <mxGeometry relative="1" as="geometry" />
        </mxCell>
        <mxCell id="7-yrH4Gy5jRmvyiKCKQK-37" value="&lt;font&gt;&lt;font style=&quot;font-size: 7px&quot;&gt;Recipe More Info Menu&lt;/font&gt;&lt;br&gt;&lt;/font&gt;" style="rounded=1;whiteSpace=wrap;html=1;verticalAlign=top;horizontal=1;" vertex="1" parent="1">
          <mxGeometry x="540" y="170" width="80" height="20" as="geometry" />
        </mxCell>
        <mxCell id="7-yrH4Gy5jRmvyiKCKQK-39" value="&lt;font&gt;&lt;font style=&quot;font-size: 7px&quot;&gt;Shopping Cart&lt;/font&gt;&lt;br&gt;&lt;/font&gt;" style="rounded=1;whiteSpace=wrap;html=1;verticalAlign=top;horizontal=1;" vertex="1" parent="1">
          <mxGeometry x="540" y="130" width="80" height="20" as="geometry" />
        </mxCell>
        <mxCell id="7-yrH4Gy5jRmvyiKCKQK-42" value="" style="endArrow=classic;html=1;fontColor=#000000;" edge="1" parent="1">
          <mxGeometry width="50" height="50" relative="1" as="geometry">
            <mxPoint x="300" y="110" as="sourcePoint" />
            <mxPoint x="260" y="130" as="targetPoint" />
          </mxGeometry>
        </mxCell>
        <mxCell id="7-yrH4Gy5jRmvyiKCKQK-46" value="" style="endArrow=classic;html=1;fontColor=#000000;entryX=0;entryY=1;entryDx=0;entryDy=0;" edge="1" parent="1" target="7-yrH4Gy5jRmvyiKCKQK-39">
          <mxGeometry width="50" height="50" relative="1" as="geometry">
            <mxPoint x="500" y="170" as="sourcePoint" />
            <mxPoint x="550" y="120" as="targetPoint" />
          </mxGeometry>
        </mxCell>
        <mxCell id="7-yrH4Gy5jRmvyiKCKQK-47" value="" style="endArrow=classic;html=1;fontColor=#000000;exitX=0;exitY=1;exitDx=0;exitDy=0;" edge="1" parent="1" source="7-yrH4Gy5jRmvyiKCKQK-39">
          <mxGeometry width="50" height="50" relative="1" as="geometry">
            <mxPoint x="510" y="180" as="sourcePoint" />
            <mxPoint x="500" y="170" as="targetPoint" />
          </mxGeometry>
        </mxCell>
        <mxCell id="7-yrH4Gy5jRmvyiKCKQK-48" value="&lt;font&gt;&lt;font style=&quot;font-size: 7px&quot;&gt;Example for later&lt;br&gt;&lt;/font&gt;&lt;br&gt;&lt;/font&gt;" style="rounded=1;whiteSpace=wrap;html=1;verticalAlign=top;horizontal=1;" vertex="1" parent="1">
          <mxGeometry x="540" y="210" width="80" height="20" as="geometry" />
        </mxCell>
        <mxCell id="7-yrH4Gy5jRmvyiKCKQK-49" value="" style="endArrow=classic;html=1;fontColor=#000000;exitX=0;exitY=0;exitDx=0;exitDy=0;" edge="1" parent="1" source="7-yrH4Gy5jRmvyiKCKQK-48">
          <mxGeometry width="50" height="50" relative="1" as="geometry">
            <mxPoint x="530" y="210" as="sourcePoint" />
            <mxPoint x="500" y="190" as="targetPoint" />
          </mxGeometry>
        </mxCell>
        <mxCell id="7-yrH4Gy5jRmvyiKCKQK-50" value="" style="endArrow=classic;html=1;fontColor=#000000;exitX=1;exitY=1;exitDx=0;exitDy=0;entryX=0;entryY=0;entryDx=0;entryDy=0;" edge="1" parent="1" source="7-yrH4Gy5jRmvyiKCKQK-11" target="7-yrH4Gy5jRmvyiKCKQK-48">
          <mxGeometry width="50" height="50" relative="1" as="geometry">
            <mxPoint x="480" y="260" as="sourcePoint" />
            <mxPoint x="530" y="210" as="targetPoint" />
          </mxGeometry>
        </mxCell>
        <mxCell id="7-yrH4Gy5jRmvyiKCKQK-51" value="" style="endArrow=classic;html=1;fontColor=#000000;exitX=1;exitY=1;exitDx=0;exitDy=0;entryX=0;entryY=0;entryDx=0;entryDy=0;" edge="1" parent="1" source="7-yrH4Gy5jRmvyiKCKQK-2" target="7-yrH4Gy5jRmvyiKCKQK-4">
          <mxGeometry width="50" height="50" relative="1" as="geometry">
            <mxPoint x="370" y="210" as="sourcePoint" />
            <mxPoint x="420" y="160" as="targetPoint" />
          </mxGeometry>
        </mxCell>
        <mxCell id="7-yrH4Gy5jRmvyiKCKQK-52" value="" style="endArrow=classic;html=1;fontColor=#000000;" edge="1" parent="1">
          <mxGeometry width="50" height="50" relative="1" as="geometry">
            <mxPoint x="300" y="170" as="sourcePoint" />
            <mxPoint x="260" y="150" as="targetPoint" />
          </mxGeometry>
        </mxCell>
        <mxCell id="7-yrH4Gy5jRmvyiKCKQK-56" value="" style="endArrow=none;html=1;fontColor=#000000;" edge="1" parent="1">
          <mxGeometry width="50" height="50" relative="1" as="geometry">
            <mxPoint x="460" y="220" as="sourcePoint" />
            <mxPoint x="460" y="190" as="targetPoint" />
          </mxGeometry>
        </mxCell>
        <mxCell id="7-yrH4Gy5jRmvyiKCKQK-57" value="" style="endArrow=classic;html=1;fontColor=#000000;" edge="1" parent="1">
          <mxGeometry width="50" height="50" relative="1" as="geometry">
            <mxPoint x="220" y="220" as="sourcePoint" />
            <mxPoint x="220" y="150" as="targetPoint" />
          </mxGeometry>
        </mxCell>
        <mxCell id="7-yrH4Gy5jRmvyiKCKQK-58" value="" style="endArrow=none;html=1;fontColor=#000000;" edge="1" parent="1">
          <mxGeometry width="50" height="50" relative="1" as="geometry">
            <mxPoint x="220" y="220" as="sourcePoint" />
            <mxPoint x="460" y="220" as="targetPoint" />
          </mxGeometry>
        </mxCell>
        <mxCell id="7-yrH4Gy5jRmvyiKCKQK-59" value="" style="endArrow=classic;html=1;fontColor=#000000;" edge="1" parent="1">
          <mxGeometry width="50" height="50" relative="1" as="geometry">
            <mxPoint x="300" y="70" as="sourcePoint" />
            <mxPoint x="220" y="130" as="targetPoint" />
          </mxGeometry>
        </mxCell>
        <mxCell id="7-yrH4Gy5jRmvyiKCKQK-60" value="" style="endArrow=none;html=1;fontColor=#000000;" edge="1" parent="1">
          <mxGeometry width="50" height="50" relative="1" as="geometry">
            <mxPoint x="300" y="70" as="sourcePoint" />
            <mxPoint x="580" y="70" as="targetPoint" />
          </mxGeometry>
        </mxCell>
        <mxCell id="7-yrH4Gy5jRmvyiKCKQK-61" value="" style="endArrow=none;html=1;fontColor=#000000;entryX=0.5;entryY=0;entryDx=0;entryDy=0;" edge="1" parent="1" target="7-yrH4Gy5jRmvyiKCKQK-39">
          <mxGeometry width="50" height="50" relative="1" as="geometry">
            <mxPoint x="580" y="70" as="sourcePoint" />
            <mxPoint x="580" y="40" as="targetPoint" />
          </mxGeometry>
        </mxCell>
        <mxCell id="7-yrH4Gy5jRmvyiKCKQK-62" value="" style="endArrow=classic;html=1;fontColor=#000000;" edge="1" parent="1">
          <mxGeometry width="50" height="50" relative="1" as="geometry">
            <mxPoint x="580" y="70" as="sourcePoint" />
            <mxPoint x="580" y="130" as="targetPoint" />
          </mxGeometry>
        </mxCell>
      </root>
    </mxGraphModel>
  </diagram>
</mxfile>
